<?xml version="1.0" encoding="UTF-8"?>
<svg width="143px" height="39px" viewBox="0 0 143 39" version="1.1" xmlns="http://www.w3.org/2000/svg" xmlns:xlink="http://www.w3.org/1999/xlink">
    <!-- Generator: Sketch 63.1 (92452) - https://sketch.com -->
    <title>LOGO GRATKA</title>
    <desc>Created with Sketch.</desc>
    <defs>
        <polygon id="path-1" points="16.918929 2.27526 44.0938902 2.27526 44.0938902 29.5285714 16.918929 29.5285714"></polygon>
    </defs>
    <g id="20-LAT-GRATKI" stroke="none" stroke-width="1" fill="none" fill-rule="evenodd">
        <g id="Cennik-Mobile-360px" transform="translate(-10.000000, -11.000000)">
            <g id="Organisms/top/mobile/domyslne">
                <g id="Atoms/logo/gratka-Copy-4" transform="translate(10.000000, 11.000000)">
                    <g id="LOGO-GRATKA">
                        <path d="M4.46768509,22.4274782 C4.61870621,24.2039282 5.85408616,25.3498356 7.69128299,25.3498356 C9.52621224,25.3498356 10.7620457,24.2039282 10.8813206,22.4274782 C10.9715705,21.4622421 10.9715705,20.4098321 10.8813206,19.4147852 C10.7919778,17.6961499 9.58562295,16.4928794 7.69128299,16.4928794 C5.85408616,16.4928794 4.61870621,17.6369801 4.46768509,19.4147852 C4.37698172,20.4694536 4.37698172,21.4622421 4.46768509,22.4274782 Z M1.76154993,26.4921296 C1.00825842,25.5277968 0.573789255,24.3900196 0.464491689,23.0896383 C0.344309719,21.6438167 0.344309719,20.2291608 0.464491689,18.7806291 C0.614605773,16.9752717 1.33615111,15.4982842 2.69125952,14.3523768 C4.04682144,13.2082762 5.7343577,12.636 7.69128299,12.636 L14.7942642,12.636 C15.811956,12.636 16.6350892,13.4603126 16.6350892,14.4779434 C16.6350892,15.4946708 15.811956,16.3198867 14.7942642,16.3198867 L14.2128556,16.3198867 C14.5856464,17.0570254 14.8110443,17.8781762 14.8867816,18.7806291 C15.0074171,20.1975434 15.0074171,21.6126509 14.8867816,23.0607309 C14.7357605,24.8697018 13.9842831,26.3435275 12.6563857,27.4889832 C11.3339305,28.6339872 9.67677984,29.2089735 7.69128299,29.2089735 C6.75975934,29.2089735 5.89853081,29.0730183 5.10260871,28.8142068 C5.10260871,28.8142068 3.99602755,29.4939824 4.1533979,30.7767482 C4.2930811,31.9154287 5.44864208,32.2912249 5.44864208,32.2912249 C6.85862602,31.4994332 8.53119623,31.032398 10.3307512,31.032398 C15.3194367,31.032398 19.3779592,34.5758128 19.3779592,38.9286349 L19.3738775,39 L15.5076462,39 L15.5121814,38.9286349 C15.5121814,36.7081852 13.1870004,34.9014728 10.3307512,34.9014728 C7.47268786,34.9014728 5.14841391,36.7081852 5.14841391,38.9286349 L5.15294908,39 L1.28807832,39 L1.28354315,38.9286349 C1.28354315,37.5763106 1.6744747,36.30574 2.36472737,35.1919018 C1.29125294,34.4123054 0.591476413,32.9999079 0.301225617,31.7898622 C0.0526983727,30.7622945 -0.0960551603,28.6746382 1.76154993,26.4921296 L1.76154993,26.4921296 Z" id="Fill-3" fill="#FFFFFF"></path>
                        <path d="M28.4832653,14.9040508 C28.4832653,15.818048 27.7335797,16.7597687 26.5167463,16.7597687 C26.2955891,16.7597687 25.9235576,16.7016812 25.4231425,16.61411 C25.0169066,16.5243385 24.6411267,16.4935346 24.3623374,16.4935346 L24.1730418,16.4935346 C23.0799065,16.5243385 22.5485669,17.1729817 22.5485669,18.4099803 L22.5485669,26.8564231 C22.5485669,28.0054104 21.6119285,28.86 20.4564756,28.86 C19.3005541,28.86 18.3662585,27.9495233 18.3662585,26.8564231 L18.3662585,17.6728858 C18.3662585,14.578409 20.3318404,12.636 23.8614538,12.636 C24.9845764,12.636 25.8907589,12.7222511 26.5462652,12.87011 C27.827759,13.1957518 28.4832653,13.8738787 28.4832653,14.9040508" id="Fill-4" fill="#FFFFFF"></path>
                        <path d="M55.1217528,25.1336203 C54.7975279,24.9024057 54.4455123,24.7859292 54.0326218,24.7859292 C53.8283822,24.7859292 53.5941463,24.8141791 53.3572636,24.8724174 C52.5623612,25.0775551 51.9743452,25.1940317 51.5345463,25.1940317 C50.2694076,25.1940317 49.6222812,24.4647495 49.6222812,23.0383467 L49.6222812,17.043717 L53.2981532,17.043717 C54.2672989,17.043717 55.1217528,16.2879234 55.1217528,15.3548074 C55.1217528,14.3378108 54.2672989,13.6093979 53.2981532,13.6093979 L49.6222812,13.6093979 L49.6222812,11.6297316 C49.6222812,10.4949546 48.7409188,9.594 47.6548758,9.594 C46.5644215,9.594 45.6821769,10.4949546 45.6821769,11.6297316 L45.6821769,23.1248348 C45.6821769,26.5908808 47.475339,28.86 50.9756444,28.86 C52.475019,28.86 53.6514922,28.6570353 54.5610863,28.2480636 C55.3881906,27.8721226 55.7962287,27.3175552 55.7962287,26.5313387 C55.8288718,25.9480868 55.5902246,25.4834845 55.1217528,25.1336203" id="Fill-5" fill="#FFFFFF"></path>
                        <path d="M72.3689645,13.3204729 C72.0071351,12.9389463 71.5259021,12.7341499 70.9501412,12.7341499 L70.9211948,12.7622162 C70.3164875,12.7622162 69.8040467,12.9985873 69.3811587,13.4397548 L64.7122033,18.1369167 C64.2590121,18.5793998 63.7759699,18.8127011 63.2015659,18.8127011 L62.8718489,18.8127011 L62.8718489,9.59072194 C62.8718489,8.44701936 61.9690847,7.566 60.8514843,7.566 C59.7379545,7.566 58.8342857,8.44701936 58.8342857,9.59072194 L58.8342857,26.8304596 C58.8342857,27.916714 59.7669008,28.8564972 60.8514843,28.8564972 C62.0287865,28.8564972 62.8718489,27.9767934 62.8718489,26.8304596 L62.8718489,22.5433291 L63.2653383,22.5433291 C63.8080823,22.5433291 64.2879584,22.7775075 64.7122033,23.2177979 L69.4413128,28.1780816 C70.2536197,29.0849746 71.6701816,29.059978 72.4236912,28.2653503 C72.8171806,27.8548804 72.9980952,27.4132743 72.9980952,26.9142201 C72.9980952,26.3564019 72.7877819,25.8266501 72.3626325,25.3876753 L67.6054812,20.5760554 L72.3974585,15.9639695 C73.1215695,15.2881851 73.1215695,14.1725489 72.3689645,13.3204729" id="Fill-6" fill="#FFFFFF"></path>
                        <path d="M39.6457018,17.1800226 C39.2570644,16.8358984 37.9729886,16.4059633 36.6821735,16.4059633 C34.7663936,16.4059633 33.7168481,17.378488 33.5676832,19.3530212 C33.5375807,19.9426968 33.5375807,21.255385 33.5676832,22.346725 C33.6588894,24.1443554 34.6464327,25.2339351 36.442701,25.2339351 C37.7007179,25.2339351 38.7781194,24.9390973 39.6457018,24.3503018 L39.6457018,17.1800226 Z M43.6587755,15.0114245 L43.6587755,25.4420818 L43.6524854,25.4442821 L43.6524854,26.8269394 C43.6524854,27.9719661 42.8069184,28.86 41.6724568,28.86 C40.9221396,28.86 40.2553906,28.5911255 39.9130303,27.9499633 L39.6457018,28.0925416 C38.5399948,28.5933258 37.3129791,28.86 36.0230625,28.86 C32.1919519,28.86 29.9153907,26.590189 29.5869585,23.0248519 C29.4643018,21.7566093 29.4643018,20.0324683 29.5869585,18.7637856 C29.7347754,16.9657151 30.4235397,15.4928463 31.6829044,14.3434189 C32.9400227,13.1953117 34.556125,12.636 36.5029061,12.636 C37.8709994,12.636 39.1281177,12.9818843 40.2868411,13.4905896 C40.6399844,13.1922313 41.0933197,13.0078477 41.5965265,13.0078477 C42.7053785,13.0078477 43.6587755,13.9205247 43.6587755,15.0114245 L43.6587755,15.0114245 Z" id="Fill-7" fill="#FFFFFF"></path>
                        <path d="M84.1603407,17.1800226 C83.7721342,16.8358984 82.4870987,16.4059633 81.1962221,16.4059633 C79.280351,16.4059633 78.2312049,17.378488 78.082033,19.3530212 C78.051929,19.9426968 78.051929,21.255385 78.082033,22.346725 C78.1741422,24.1443554 79.1608338,25.2339351 80.9571876,25.2339351 C82.2157136,25.2339351 83.2927171,24.9390973 84.1603407,24.3503018 L84.1603407,17.1800226 Z M88.1736054,15.0114245 L88.1736054,25.4420818 L88.1673151,25.4442821 L88.1673151,26.8269394 C88.1673151,27.9719661 87.3217078,28.86 86.1876415,28.86 C85.4372886,28.86 84.7700586,28.5911255 84.4281313,27.9499633 L84.1603407,28.0925416 C83.0550305,28.5933258 81.8270578,28.86 80.5379784,28.86 C76.7057869,28.86 74.4295667,26.590189 74.1011188,23.0248519 C73.979355,21.7566093 73.979355,20.0324683 74.1011188,18.7637856 C74.2493921,16.9657151 74.9377398,15.4928463 76.1971645,14.3434189 C77.4543426,13.1953117 79.0709711,12.636 81.0178448,12.636 C82.3855539,12.636 83.642732,12.9818843 84.8019599,13.4905896 C85.1546706,13.1922313 85.6080276,13.0078477 86.1117076,13.0078477 C87.220163,13.0078477 88.1736054,13.9205247 88.1736054,15.0114245 L88.1736054,15.0114245 Z" id="Fill-8" fill="#FFFFFF"></path>
                        <g id="20-lat-logo" transform="translate(98.251701, 0.000000)">
                            <path d="M9.19513625,0.4604925 C5.62814942,0.4604925 2.58365471,2.09844623 0.747476724,4.41269329 C0.30939457,4.99695362 0.138886492,5.37938923 0.138886492,5.89737107 C0.138886492,6.92697973 0.962292068,7.75196036 1.98968727,7.75196036 C2.58798862,7.75196036 2.96560297,7.55533598 3.4197423,7.09270844 L3.6585627,6.83588799 C5.066857,5.08355694 6.91157444,4.13081036 9.47238115,4.13081036 C12.5942641,4.13081036 14.6481751,5.87227677 14.6481751,8.50271036 C14.6481751,9.6924144 14.294637,10.718625 13.4304235,11.6632614 L12.9949763,12.1173492 C12.22395,12.8882386 11.0115492,13.8372241 8.16086319,15.9101996 L6.49204094,17.1178648 C2.07754162,20.2883108 0.178075996,23.0813814 0.178075996,26.5871496 C0.178075996,28.1731889 1.21811931,29.1775854 2.76430534,29.1775854 L17.0943228,29.1775854 C18.157701,29.1775854 19.0047417,28.377157 19.0047417,27.3229961 L18.9987843,27.1791412 C18.9198937,26.2290216 18.0683513,25.4667354 17.0943228,25.4667354 L4.29166764,25.4660529 L4.29913402,25.3874719 C4.49069027,23.4017591 5.80778865,22.1763374 11.9786143,17.630817 C16.8930407,14.0781838 18.3898,11.9728096 18.3898,8.34350679 C18.3898,3.72802477 14.8557748,0.4604925 9.19513625,0.4604925 Z" id="Path" fill="#FFFFFF" fill-rule="nonzero"></path>
                            <mask id="mask-2" fill="white">
                                <use xlink:href="#path-1"></use>
                            </mask>
                            <g id="Clip-11"></g>
                            <path d="M38.1450485,20.2489671 C37.7798357,20.4090064 37.2607832,20.5026064 36.6954537,20.5026064 C35.0795121,20.5026064 34.3936957,19.4161779 34.3936957,18.0698421 L34.3936957,12.3238886 C34.3936957,11.8843029 34.7130485,11.5170064 35.1253721,11.5170064 C35.5581243,11.5170064 35.9108298,11.8843029 35.9108298,12.3238886 L35.9108298,13.2837064 L37.6864479,13.2837064 C38.0845966,13.2837064 38.4314654,13.5837279 38.4314654,14.0304171 C38.4314654,14.39061 38.0845966,14.7106886 37.6864479,14.7106886 L35.9108298,14.7106886 L35.9108298,18.0426814 C35.9108298,18.6824207 36.1693138,19.0426136 36.8409552,19.0426136 C37.1273721,19.0426136 37.339996,19.0225564 37.6589319,18.9231064 C37.7527365,18.8959457 37.8919844,18.8495636 37.9982963,18.8554136 C38.3910252,18.8754707 38.664101,19.1896993 38.664101,19.5486386 C38.664101,19.9017279 38.4443896,20.1094029 38.1450485,20.2489671 L38.1450485,20.2489671 Z M32.9574421,19.2360814 C32.9574421,19.4826171 32.9099144,19.629285 32.6910368,19.7822207 C32.4112905,19.9894779 31.3210718,20.4896529 29.8314537,20.4896529 C28.0754304,20.4896529 27.2040893,19.5227314 27.2040893,18.2298814 C27.2040893,17.0368993 27.9891301,15.97596 29.9044129,15.97596 C30.5818911,15.97596 30.9212555,16.0436529 31.4807482,16.1965886 L31.4807482,15.8965671 C31.4807482,14.990235 31.1209552,14.5694529 30.1045295,14.5694529 C29.7247249,14.5694529 29.2060893,14.6572029 28.7733371,14.8561029 C28.5744712,14.9296457 28.4610718,14.9367493 28.3547599,14.9367493 C27.9691185,14.9367493 27.6626899,14.6166707 27.6626899,14.2497921 C27.6626899,14.0170457 27.7431534,13.7303957 28.141719,13.5502993 C28.5544596,13.3572493 29.2790485,13.1499921 30.1045295,13.1499921 C32.0456607,13.1499921 32.9574421,13.9497707 32.9574421,15.78291 L32.9574421,19.2360814 Z M25.7903488,19.6493421 C25.7903488,20.0688707 25.4380602,20.42196 25.0253196,20.42196 C24.6125791,20.42196 24.2736316,20.0688707 24.2736316,19.6493421 L24.2736316,11.5976529 C24.2736316,11.1568136 24.6125791,10.7978743 25.0324071,10.7978743 C25.4305558,10.7978743 25.7903488,11.1568136 25.7903488,11.5976529 L25.7903488,19.6493421 Z M30.4980922,2.27526 C26.4815849,2.27526 22.883238,4.03109571 20.3942876,6.80650286 C20.6631943,7.56909214 20.807445,8.38474929 20.807445,9.233835 C20.807445,12.0694136 19.7701739,13.8854207 16.918929,16.2350314 C17.0973663,23.6051957 23.1012817,29.5287386 30.4980922,29.5287386 C38.0066345,29.5287386 44.0939319,23.4276064 44.0939319,15.9019993 C44.0939319,8.37597429 38.0066345,2.27526 30.4980922,2.27526 L30.4980922,2.27526 Z" id="Fill-10" fill="#FFFFFF" mask="url(#mask-2)"></path>
                            <path d="M28.6737791,18.2227361 C28.6737791,18.8353146 29.1523914,19.1553932 30.0370736,19.1553932 C30.3893622,19.1553932 31.1010269,19.0024575 31.4804147,18.7429682 L31.4804147,17.4359111 C30.9413505,17.2959289 30.556126,17.1964789 30.1046129,17.1964789 C28.9797908,17.1964789 28.6737791,17.7355146 28.6737791,18.2227361" id="Fill-13" fill="#FFFFFF" mask="url(#mask-2)"></path>
                        </g>
                    </g>
                </g>
            </g>
        </g>
    </g>
</svg>