<svg xmlns="http://www.w3.org/2000/svg" width="58" height="18" viewBox="0 0 58 18">
    <g fill="#FFF" fill-rule="evenodd">
        <path d="M46.2 4.255c1.782 0 3.412 1.004 4.137 2.692.366.852.424 2.022.424 2.922v.058h-6.796c.043.849 1.076 1.528 2.344 1.528.8 0 1.508-.271 1.931-.684l.068.013 1.869 1.064c-.755 1.15-2.188 1.897-3.977 1.897-2.681 0-4.745-2.064-4.745-4.745s2.064-4.745 4.745-4.745zM26.236 4.2c2.621 0 4.746 2.125 4.746 4.745 0 2.621-2.125 4.746-4.746 4.746-2.62 0-4.745-2.125-4.745-4.746 0-2.62 2.125-4.745 4.745-4.745zm28.637-2.352v2.734h2.4v2.182h-2.4v3.831l.009.052c.15.817.674.855 2.282.675v2.141c-1.572.215-2.815.121-3.66-.41-.678-.425-.971-1.287-.922-2.458V6.764h-1.31V4.582h1.31V2.4l2.29-.552zM37.096 4.262c1.918 0 3.071 1.162 3.377 3.156v6l-2.51.002V7.63c-.107-.374-.238-.62-.392-.737-.806-.615-2.148-.615-3.155.737v5.786h-2.444l-.008-9.014h2.181v.936c.455-.717 1.438-1.076 2.95-1.076zm-10.75 2.283c-1.356 0-2.455 1.1-2.455 2.455 0 1.356 1.099 2.455 2.454 2.455 1.356 0 2.455-1.1 2.455-2.455 0-1.356-1.099-2.455-2.455-2.455zm19.762-.218c-.739 0-1.433.42-1.865.982-.131.17-.23.427-.297.77h4.362c-.082-.325-.166-.56-.253-.702-.408-.672-1.133-1.05-1.947-1.05z"/>
        <circle cx="9" cy="9" r="9"/>
    </g>
</svg>
