<?xml version="1.0" encoding="UTF-8"?>
<svg width="91px" height="33px" viewBox="0 0 91 33" version="1.1" xmlns="http://www.w3.org/2000/svg" xmlns:xlink="http://www.w3.org/1999/xlink">
    <!-- Generator: Sketch 62 (91390) - https://sketch.com -->
    <title>LOGO</title>
    <desc>Created with Sketch.</desc>
    <g id="Bartek-B2B-Nieruchomości" stroke="none" stroke-width="1" fill="none" fill-rule="evenodd">
        <g id="Rynek-wtórny---aktywne" transform="translate(-130.000000, -19.000000)" fill="#FFFFFF">
            <g id="NAGŁÓWEK">
                <g id="LOGO" transform="translate(130.000000, 19.000000)">
                    <path d="M4.5926553,16.0025418 C4.74790079,17.8245418 6.01783682,18.9998314 7.90642378,18.9998314 C9.79267972,18.9998314 11.063082,17.8245418 11.1856933,16.0025418 C11.2784676,15.012556 11.2784676,13.9331611 11.1856933,12.9126002 C11.0938513,11.1498974 9.85375227,9.91577378 7.90642378,9.91577378 C6.01783682,9.91577378 4.74790079,11.0892104 4.5926553,12.9126002 C4.49941477,13.9943114 4.49941477,15.012556 4.5926553,16.0025418 Z M1.81082406,20.171415 C1.03646145,19.1823557 0.589839304,18.0154048 0.477484464,16.6816803 C0.35394076,15.1987863 0.35394076,13.7478573 0.477484464,12.2621837 C0.631797543,10.410535 1.37352597,8.89567613 2.7665395,7.72038651 C4.16001924,6.54694992 5.89475932,5.96 7.90642378,5.96 L15.2080898,5.96 C16.2542485,5.96 17.1004063,6.80544878 17.1004063,7.84917268 C17.1004063,8.89197005 16.2542485,9.73834535 15.2080898,9.73834535 L14.610418,9.73834535 C14.9936365,10.494385 15.2253393,11.336591 15.3031951,12.2621837 C15.427205,13.7154291 15.427205,15.1668214 15.3031951,16.6520317 C15.1479496,18.5073865 14.3754518,20.0190026 13.0104104,21.1938289 C11.6509635,22.368192 9.947459,22.9579215 7.90642378,22.9579215 C6.94884352,22.9579215 6.06352468,22.8184804 5.24533902,22.5530326 C5.24533902,22.5530326 4.10780454,23.2502383 4.26957686,24.5658956 C4.41316728,25.7337731 5.60105165,26.1192051 5.60105165,26.1192051 C7.0504757,25.307111 8.76983109,24.8281005 10.6197232,24.8281005 C15.7479524,24.8281005 19.92,28.4623721 19.92,32.926805 L19.9158042,33 L15.9414265,33 L15.9460886,32.926805 C15.9460886,30.6494208 13.5558676,28.7963823 10.6197232,28.7963823 C7.6817141,28.7963823 5.29242549,30.6494208 5.29242549,32.926805 L5.29708751,33 L1.32410849,33 L1.31944646,32.926805 C1.31944646,31.5398057 1.72131315,30.2366564 2.43087359,29.0942583 C1.3273719,28.2946722 0.608021208,26.8460594 0.309651508,25.6049869 C0.054172453,24.5510713 -0.0987420179,22.4098854 1.81082406,20.171415 L1.81082406,20.171415 Z" id="Fill-3"></path>
                    <path d="M29.28,8.28620592 C29.28,9.22363893 28.5093442,10.1895063 27.2584735,10.1895063 C27.03113,10.1895063 26.6486921,10.1299295 26.1342794,10.0401128 C25.7166803,9.94803949 25.330389,9.9164457 25.0438014,9.9164457 L24.8492108,9.9164457 C23.7254983,9.94803949 23.179296,10.6133145 23.179296,11.882031 L23.179296,20.5450494 C23.179296,21.7234979 22.2164579,22.6 21.0286847,22.6 C19.8404298,22.6 18.88,21.6661777 18.88,20.5450494 L18.88,11.1260367 C18.88,7.95221439 20.9005632,5.96 24.528907,5.96 C25.6834457,5.96 26.6149759,6.04846262 27.2888181,6.20011283 C28.6061578,6.53410437 29.28,7.22961918 29.28,8.28620592" id="Fill-4"></path>
                    <path d="M56.66362,18.7780721 C56.3303259,18.540929 55.9684637,18.4214659 55.5440238,18.4214659 C55.3340712,18.4214659 55.0932832,18.4504401 54.8497745,18.5101717 C54.0326371,18.7205694 53.4281731,18.8400325 52.9760721,18.8400325 C51.6755448,18.8400325 51.010317,18.0920508 51.010317,16.6290735 L51.010317,10.4807354 L54.7890106,10.4807354 C55.7852653,10.4807354 56.66362,9.7055625 56.66362,8.74852038 C56.66362,7.705447 55.7852653,6.95835683 54.7890106,6.95835683 L51.010317,6.95835683 L51.010317,4.9279298 C51.010317,3.76405604 50.1043012,2.84 48.9878793,2.84 C47.8669228,2.84 46.96,3.76405604 46.96,4.9279298 L46.96,16.7177793 C46.96,20.2726982 48.8033205,22.6 52.4015365,22.6 C53.9428517,22.6 55.1522332,22.3918311 56.0872706,21.9723729 C56.9375106,21.5867924 57.3569624,21.0180054 57.3569624,20.2116294 C57.3905186,19.6134224 57.145196,19.1369072 56.66362,18.7780721" id="Fill-5"></path>
                    <path d="M74.3932712,6.66202347 C74.0213207,6.27071419 73.5266266,6.06066656 72.9347605,6.06066656 L72.9050045,6.08945253 C72.2833823,6.08945253 71.7566075,6.33188438 71.3218904,6.78436385 L66.5223349,11.6019658 C66.056467,12.0557947 65.5599131,12.295078 64.9694418,12.295078 L64.630502,12.295078 L64.630502,2.83663789 C64.630502,1.6636096 63.7024856,0.76 62.5536237,0.76 C61.4089462,0.76 60.48,1.6636096 60.48,2.83663789 L60.48,20.5184201 C60.48,21.6325272 61.4387023,22.5964074 62.5536237,22.5964074 C63.7638575,22.5964074 64.630502,21.6941471 64.630502,20.5184201 L64.630502,16.1213632 L65.0349981,16.1213632 C65.5929237,16.1213632 66.086223,16.3615461 66.5223349,16.813126 L71.3837272,21.9005965 C72.2187559,22.8307432 73.6749419,22.8051057 74.4495287,21.9901029 C74.8540248,21.5691081 75.04,21.1161788 75.04,20.6043283 C75.04,20.0322071 74.8238038,19.4888719 74.386762,19.0386414 L69.4965436,14.1036466 L74.4225623,9.37330205 C75.1669281,8.68018986 75.1669281,7.53594754 74.3932712,6.66202347" id="Fill-6"></path>
                    <path d="M40.7546724,10.620536 C40.3551641,10.2675882 39.0351701,9.82662906 37.7082483,9.82662906 C35.7388801,9.82662906 34.6599767,10.8240903 34.5066394,12.8492525 C34.4756948,13.454048 34.4756948,14.8003949 34.5066394,15.9197179 C34.6003968,17.7634415 35.6155636,18.8809591 37.4620773,18.8809591 C38.7552834,18.8809591 39.8628221,18.5785614 40.7546724,17.9746685 L40.7546724,10.620536 Z M44.88,8.39633286 L44.88,19.0944429 L44.873534,19.0966996 L44.873534,20.5148096 C44.873534,21.6891961 44.0043147,22.6 42.8381199,22.6 C42.0668148,22.6 41.3814156,22.3242313 41.0294787,21.6666291 L40.7546724,21.8128632 C39.6180366,22.326488 38.3566988,22.6 37.0307006,22.6 C33.0924261,22.6 30.7521849,20.2719887 30.4145657,16.6152327 C30.2884781,15.3144711 30.2884781,13.5461213 30.4145657,12.2449083 C30.5665174,10.4007334 31.2745478,8.89009873 32.5691395,7.71119887 C33.8614219,6.53365303 35.5227299,5.96 37.5239664,5.96 C38.9303281,5.96 40.2226105,6.31475317 41.4137457,6.83650212 C41.7767671,6.53049365 42.2427832,6.34138223 42.7600657,6.34138223 C43.8999345,6.34138223 44.88,7.27746121 44.88,8.39633286 L44.88,8.39633286 Z" id="Fill-7"></path>
                    <path d="M86.5144761,10.620536 C86.1154107,10.2675882 84.7944301,9.82662906 83.4674451,9.82662906 C81.4979832,9.82662906 80.4194904,10.8240903 80.2661458,12.8492525 C80.2351997,13.454048 80.2351997,14.8003949 80.2661458,15.9197179 C80.3608314,17.7634415 81.3751228,18.8809591 83.2217243,18.8809591 C84.5154538,18.8809591 85.6225833,18.5785614 86.5144761,17.9746685 L86.5144761,10.620536 Z M90.64,8.39633286 L90.64,19.0944429 L90.6335337,19.0966996 L90.6335337,20.5148096 C90.6335337,21.6891961 89.764273,22.6 88.5984846,22.6 C87.8271428,22.6 87.1412491,22.3242313 86.7897574,21.6666291 L86.5144761,21.8128632 C85.3782481,22.326488 84.1159265,22.6 82.790789,22.6 C78.8514033,22.6 76.5115126,20.2719887 76.1738774,16.6152327 C76.0487075,15.3144711 76.0487075,13.5461213 76.1738774,12.2449083 C76.3262982,10.4007334 77.0339004,8.89009873 78.3285537,7.71119887 C79.6208976,6.53365303 81.2827465,5.96 83.2840783,5.96 C84.690045,5.96 85.9823889,6.31475317 87.1740427,6.83650212 C87.5366195,6.53049365 88.0026577,6.34138223 88.5204267,6.34138223 C89.6598879,6.34138223 90.64,7.27746121 90.64,8.39633286 L90.64,8.39633286 Z" id="Fill-8"></path>
                </g>
            </g>
        </g>
    </g>
</svg>